<svg width="24" height="24" viewBox="0 0 24 24" fill="none" xmlns="http://www.w3.org/2000/svg">
  <defs>
    <linearGradient id="grad1" x1="0%" y1="0%" x2="100%" y2="100%">
      <stop offset="0%" style="stop-color:#8B5CF6;stop-opacity:1" />
      <stop offset="50%" style="stop-color:#EC4899;stop-opacity:1" />
      <stop offset="100%" style="stop-color:#F59E0B;stop-opacity:1" />
    </linearGradient>
    <linearGradient id="grad2" x1="0%" y1="0%" x2="100%" y2="100%">
      <stop offset="0%" style="stop-color:#06B6D4;stop-opacity:1" />
      <stop offset="100%" style="stop-color:#3B82F6;stop-opacity:1" />
    </linearGradient>
  </defs>
  
  <!-- Magic wand stick -->
  <path d="M4 20L10 14" stroke="url(#grad1)" stroke-width="2" stroke-linecap="round"/>
  
  <!-- Stars decoration -->
  <path d="M15 7L16 5L17 7L19 8L17 9L16 11L15 9L13 8Z" fill="url(#grad1)"/>
  <path d="M20 4L20.5 3L21 4L22 4.5L21 5L20.5 6L20 5L19 4.5Z" fill="url(#grad2)"/>
  <path d="M11 3L11.5 2L12 3L13 3.5L12 4L11.5 5L11 4L10 3.5Z" fill="url(#grad2)"/>
  
  <!-- Sparkles -->
  <circle cx="18" cy="11" r="1" fill="url(#grad1)"/>
  <circle cx="14" cy="13" r="0.8" fill="url(#grad2)"/>
  <circle cx="8" cy="8" r="0.7" fill="url(#grad1)"/>
  
  <!-- Bold A letter with style -->
  <path d="M6 17L7.5 13.5L9 17M6.5 16H8.5" stroke="url(#grad1)" stroke-width="1.5" stroke-linecap="round" stroke-linejoin="round"/>
</svg>
